Coordinates
version=1
nRows=26
nColumns=22
inDegrees=yes

Units are S.I. units (second, meters, Newtons, ...)
If the header above contains a line with 'inDegrees', this indicates whether rotational values are in degrees (yes) or radians (no).

endheader
time	pelvis_tilt	pelvis_list	pelvis_rotation	pelvis_tx	pelvis_ty	pelvis_tz	hip_flexion_r	hip_adduction_r	hip_rotation_r	knee_angle_r	ankle_angle_r	subtalar_angle_r	hip_flexion_l	hip_adduction_l	hip_rotation_l	knee_angle_l	ankle_angle_l	subtalar_angle_l	lumbar_extension	lumbar_bending	lumbar_rotation
      3.74000000	      0.19570429	     -4.28192150	    -95.01050331	      0.40292316	      0.99885462	      0.74066151	     -8.51196842	     -5.19594590	     -0.71981731	    -43.97134090	    -10.24720795	     11.94879646	     16.35808043	     -3.65246981	     -3.17200799	    -22.00603739	      3.31630906	      5.72126008	     -2.63058248	     -5.21136088	      5.22818809
      3.75000000	      0.37997780	     -4.29814151	    -95.51929922	      0.40620114	      0.99976768	      0.74882017	     -7.21207354	     -6.09284621	     -1.44360608	    -46.20090754	    -10.85632643	     11.76126616	     15.93820422	     -3.28924641	     -3.70604780	    -22.27960302	      3.69644964	      5.06241663	     -2.66452299	     -5.45461686	      5.16336447
      3.76000000	      0.60042149	     -4.30750766	    -95.98790148	      0.40950142	      1.00059099	      0.75673966	     -5.87461850	     -7.00908954	     -2.10573018	    -48.38432576	    -11.06369389	     11.39627402	     15.56310759	     -2.87006150	     -4.18126686	    -22.56534221	      4.07331091	      4.53820807	     -2.70364037	     -5.72896338	      5.04183789
      3.77000000	      0.83728178	     -4.32168170	    -96.41084155	      0.41279477	      1.00135674	      0.76443638	     -4.53958454	     -7.90013165	     -2.67875574	    -50.45916142	    -10.91347450	     10.84272629	     15.21746653	     -2.41632469	     -4.57685279	    -22.85786935	      4.44163755	      4.09715444	     -2.76125052	     -6.01637305	      4.85951363
      3.78000000	      1.07759205	     -4.34655337	    -96.79324644	      0.41604790	      1.00208019	      0.77193195	     -3.23171850	     -8.73129876	     -3.13808719	    -52.38115832	    -10.42019813	     10.14020935	     14.88495161	     -1.94200797	     -4.88595684	    -23.14389751	      4.80468344	      3.73741404	     -2.83987166	     -6.30619579	      4.63873448
      3.79000000	      1.25969266	     -4.37587268	    -97.12537837	      0.41919352	      1.00278498	      0.77922603	     -1.97714928	     -9.40425392	     -3.48904038	    -54.09126225	     -9.67822164	      9.10650328	     14.56451370	     -1.51651735	     -5.09383209	    -23.42327272	      5.19785523	      3.33861215	     -2.94283559	     -6.53439699	      4.34353058
      3.80000000	      1.40981711	     -4.40814761	    -97.43080128	      0.42216338	      1.00347193	      0.78629264	     -0.76108664	     -9.94828948	     -3.72856389	    -55.59188057	     -8.71615140	      8.04647980	     14.25886632	     -1.12939648	     -5.27732619	    -23.69712550	      5.53557669	      3.01906250	     -3.06512683	     -6.74003024	      4.01753162
      3.81000000	      1.48324553	     -4.43793987	    -97.71281901	      0.42491785	      1.00415200	      0.79310482	      0.40781373	    -10.29793091	     -3.86359092	    -56.86059142	     -7.60091922	      6.90589370	     13.95694824	     -0.82697587	     -5.40981934	    -23.95072729	      5.86735354	      2.70343680	     -3.21075081	     -6.87490420	      3.68577477
      3.82000000	      1.50904994	     -4.44397172	    -97.99629621	      0.42739937	      1.00479765	      0.79961788	      1.57293631	    -10.47968716	     -3.88019746	    -57.91243912	     -6.38983568	      5.82946982	     13.67170772	     -0.59130618	     -5.52956107	    -24.16502699	      6.15080808	      2.41362503	     -3.35446315	     -6.97522258	      3.37521308
      3.83000000	      1.44749050	     -4.43405891	    -98.27321995	      0.42960528	      1.00544837	      0.80586364	      2.69632780	    -10.45033325	     -3.81905317	    -58.71222273	     -5.14929863	      4.77951743	     13.38011195	     -0.46749128	     -5.66247020	    -24.33228365	      6.45970824	      2.10543990	     -3.50962266	     -6.99119857	      3.03673087
      3.84000000	      1.33614116	     -4.39835769	    -98.55015843	      0.43154606	      1.00608568	      0.81181226	      3.80686496	    -10.26262581	     -3.69622683	    -59.28608317	     -3.92912542	      3.86401107	     13.09017272	     -0.41773751	     -5.81402992	    -24.43898360	      6.75067150	      1.80584878	     -3.66329519	     -6.96780401	      2.71933030
      3.85000000	      1.18979728	     -4.33885695	    -98.83223759	      0.43323779	      1.00672179	      0.81748853	      4.89625045	     -9.94960174	     -3.53513878	    -59.62948704	     -2.72646675	      3.14179746	     12.79546707	     -0.42906193	     -5.99850542	    -24.48000550	      7.03138778	      1.52893197	     -3.80980990	     -6.91632149	      2.41024821
      3.86000000	      1.02587667	     -4.27163187	    -99.11205678	      0.43473589	      1.00737111	      0.82289260	      5.94817764	     -9.55402156	     -3.36660533	    -59.75119787	     -1.54967095	      2.66616284	     12.49245469	     -0.48097328	     -6.23112614	    -24.47607100	      7.30655505	      1.30056474	     -3.96920494	     -6.85467862	      2.10646186
      3.87000000	      0.84984513	     -4.17035416	    -99.39881512	      0.43607271	      1.00803292	      0.82808530	      6.98168260	     -9.09329304	     -3.20031021	    -59.64502216	     -0.42447470	      2.35501777	     12.18768374	     -0.55837175	     -6.44838518	    -24.39203631	      7.54454774	      1.08708258	     -4.09474726	     -6.77746057	      1.83183944
      3.88000000	      0.67370985	     -4.06981539	    -99.67360126	      0.43730573	      1.00873947	      0.83307135	      7.95365967	     -8.60911050	     -3.07258545	    -59.31918168	      0.67254629	      2.25017782	     11.87045886	     -0.64806569	     -6.68986939	    -24.26886213	      7.76178346	      0.92258861	     -4.23034702	     -6.70013460	      1.55739783
      3.89000000	      0.49751342	     -3.96502223	    -99.93682338	      0.43847417	      1.00950167	      0.83789754	      8.85915016	     -8.11715316	     -2.99476005	    -58.77148737	      1.74352157	      2.30414498	     11.54257200	     -0.74391810	     -6.93408211	    -24.10269951	      7.94952385	      0.79545368	     -4.36053573	     -6.61538413	      1.28973625
      3.90000000	      0.33181179	     -3.87566964	   -100.17170081	      0.43963700	      1.01034868	      0.84260835	      9.66361388	     -7.65029123	     -2.99111255	    -57.99884911	      2.80583570	      2.42086111	     11.19280035	     -0.82563895	     -7.17387303	    -23.90764819	      8.10560284	      0.71803717	     -4.50322069	     -6.53201062	      1.00467174
      3.91000000	      0.14502266	     -3.78093363	   -100.39341083	      0.44077608	      1.01126576	      0.84718442	     10.39426054	     -7.17057559	     -3.03504725	    -57.02476057	      3.83928738	      2.70930653	     10.82797036	     -0.92582419	     -7.37565663	    -23.66389701	      8.21669426	      0.64398508	     -4.63840336	     -6.41319053	      0.75067858
      3.92000000	     -0.02968082	     -3.70679714	   -100.57602078	      0.44195919	      1.01226936	      0.85168706	     11.00981747	     -6.73777405	     -3.15804144	    -55.84371416	      4.86036738	      2.95066172	     10.43952495	     -1.00260612	     -7.55962348	    -23.39592652	      8.29038942	      0.60546874	     -4.78473233	     -6.29437558	      0.47661821
      3.93000000	     -0.20633419	     -3.63468040	   -100.72386287	      0.44316861	      1.01331788	      0.85609661	     11.53284764	     -6.32535430	     -3.32847887	    -54.47662082	      5.85531358	      3.15530189	     10.05145799	     -1.07829931	     -7.73868577	    -23.11459774	      8.34656950	      0.57703501	     -4.92665737	     -6.15878040	      0.19336879
      3.94000000	     -0.40454203	     -3.56966114	   -100.83961785	      0.44440169	      1.01443329	      0.86041915	     11.95200493	     -5.90505155	     -3.51500018	    -52.92973029	      6.78743707	      3.41210047	      9.64176718	     -1.16526436	     -7.87272141	    -22.79451727	      8.37096707	      0.54804336	     -5.07051253	     -5.98623856	     -0.07519233
      3.95000000	     -0.61929377	     -3.50726194	   -100.92924437	      0.44564690	      1.01558978	      0.86465735	     12.27726612	     -5.47502817	     -3.68645166	    -51.22529780	      7.64605406	      3.72125728	      9.21223265	     -1.25830469	     -7.95551472	    -22.43021947	      8.36816931	      0.51454375	     -5.20848442	     -5.78174319	     -0.32136627
      3.96000000	     -0.84110615	     -3.43740248	   -100.98189140	      0.44690690	      1.01672157	      0.86878462	     12.52801885	     -5.04029653	     -3.83150669	    -49.39603685	      8.46070967	      4.03623015	      8.80101129	     -1.36169004	     -8.05001669	    -22.06318426	      8.36745885	      0.47359815	     -5.33389194	     -5.55429574	     -0.58717248
      3.97000000	     -1.07204127	     -3.34817577	   -101.00173479	      0.44816362	      1.01779284	      0.87281187	     12.71985879	     -4.59419805	     -3.93877164	    -47.46548807	      9.21396557	      4.34474129	      8.41396286	     -1.47817925	     -8.12925928	    -21.68577296	      8.38420901	      0.42695976	     -5.42920117	     -5.30159073	     -0.83604991
      3.98000000	     -1.30380923	     -3.25547339	   -100.99172981	      0.44939508	      1.01880792	      0.87670308	     12.84664345	     -4.13833091	     -3.96769838	    -45.46652998	      9.89912725	      4.71313249	      8.03692119	     -1.59779166	     -8.19969034	    -21.29490969	      8.39532391	      0.37146217	     -5.51866404	     -5.04020404	     -1.09423653
      3.99000000	     -1.52380426	     -3.14294340	   -100.95344107	      0.45057647	      1.01970677	      0.88045753	     12.93728512	     -3.68966134	     -3.93341667	    -43.43950824	     10.52227899	      5.08434620	      7.69621994	     -1.71480580	     -8.27035397	    -20.90465365	      8.41795726	      0.31275958	     -5.58077206	     -4.78357342	     -1.34393178
